<svg width="420" height="264" viewBox="0 0 420 264" fill="none" xmlns="http://www.w3.org/2000/svg">
<g opacity="0.5">
<path d="M394.911 205.488C394.889 216.569 393.508 227.079 390.905 235.763C390.799 236.112 390.694 236.458 390.584 236.803C390.416 237.335 390.243 237.86 390.065 238.376C389.945 238.72 389.824 239.063 389.703 239.401C389.433 239.754 389.12 240.104 388.763 240.452H25.9717C25.8883 240.37 25.8065 240.288 25.7263 240.205C25.6476 240.123 25.5706 240.041 25.4967 239.958C24.4539 238.802 23.8829 237.622 23.8169 236.424C23.8137 236.537 23.8106 236.65 23.809 236.767C23.8059 236.578 23.8059 236.391 23.809 236.2V236.183C23.809 236.123 23.809 236.064 23.8137 236.004C24.0465 224.074 32.8324 210.578 32.9991 200.034V200.007C33.0022 199.809 33.0022 199.614 32.9991 199.416C32.996 199.205 32.9897 198.992 32.9787 198.78C32.9692 198.587 32.9566 198.392 32.9425 198.195C32.7003 194.986 31.7251 191.504 30.3662 186.1C4.78237 84.1502 65.2077 24.2754 101.625 32.1335C109.633 33.8935 121.037 41.2373 133.771 39.9318C158.085 39.1469 216.142 -12.6999 272.217 3.02419C327.483 20.5634 307.966 80.5373 324.165 96.9786C328.583 101.35 332.973 103.91 337.274 106.148C346.631 111.024 356.847 115.204 373.665 137.09C387.169 152.286 393.838 176.598 394.79 199.475C394.875 201.493 394.914 203.499 394.911 205.488Z" fill="#BFC5E5"/>
</g>
<path d="M53.7988 127.156C52.5783 127.342 54.6229 127.933 53.7988 127.156V127.156Z" fill="#DFE2F2"/>
<path d="M11.1293 77.9744C11.1293 80.9676 0.948283 84.5868 2.35126 87.0011C0.96873 88.7502 18.0875 87.4604 18.0875 89.8622C18.0875 93.3681 1.89828 99.9585 4.58154 101.81C2.89231 104.383 1.90771 107.46 1.90771 110.769C1.90771 119.802 9.23085 127.127 18.2637 127.127C20.7142 127.127 23.0372 126.584 25.1244 125.618C26.1483 129.219 28.6554 132.031 32.5388 132.615C36.8877 133.267 40.4391 131.817 42.1787 127.323C43.6005 128.365 45.3527 128.981 47.2511 128.981C49.5254 128.981 51.5921 128.096 53.1288 126.653C53.4481 126.864 53.662 127.029 53.7972 127.157C54.0033 127.125 54.3006 127.105 54.7189 127.105C54.9171 127.105 56.3059 129.069 56.5025 129.061C58.4104 135.981 72.028 139.273 80.1801 137.618C89.0336 135.82 93.8606 131.526 95.781 122.534C95.7889 122.496 95.7779 122.457 95.7779 122.418C96.407 122.492 97.0472 122.534 97.6968 122.534C106.73 122.534 112.867 114.382 112.867 105.349C112.867 99.9396 110.24 95.1471 106.195 92.1696C108.809 90.3105 87.6699 85.3449 87.6699 81.8924C87.6699 77.2445 107.425 75.2328 103.188 73.9714C104.287 71.7725 97.5285 70.165 97.5285 67.5399C97.5285 58.5068 97.5867 50.3105 88.5523 50.3105C87.0313 50.3105 85.5607 50.5229 84.1625 50.9114C82.3427 48.0472 79.1435 46.1456 75.4993 46.1456C75.073 46.1456 74.6547 46.1739 74.2426 46.2258C71.7764 40.318 65.9459 36.1641 59.1433 36.1641C52.8079 36.1641 47.3187 39.7675 44.6024 45.0351C42.0733 43.4323 39.077 42.5012 35.8622 42.5012C26.8293 42.5012 19.5062 49.8245 19.5062 58.8576C19.5062 60.2228 19.6761 61.5488 19.9906 62.8165C18.8645 62.5711 17.6959 62.439 16.4958 62.439C7.46298 62.439 11.1277 68.946 11.1277 77.9791L11.1293 77.9744Z" fill="#DFE2F2"/>
<path d="M33.3564 114.316C39.0092 117.489 46.842 122.703 51.216 127.61C51.205 128.238 50.4217 208.481 50.4107 209.65C53.4463 211.21 56.6093 212.668 59.9012 214.018L59.1085 134.117C61.9396 130.748 65.834 127.533 70.0838 126.259C70.1577 126.24 71.0244 125.968 72.1631 125.76C69.4342 125.754 67.3376 126.253 64.9139 127.22C66.353 123.256 66.4285 118.308 66.2681 117.657C66.3373 118.412 65.4235 124.406 62.7371 128.22C60.6358 129.313 59.1652 130.385 59.1227 130.411C59.7267 125.836 60.6782 120.933 62.2353 116.568C62.2495 116.526 62.2762 116.446 62.2935 116.405C63.2781 113.668 64.6213 110.804 66.4663 108.57C62.6254 112.525 60.156 119.118 58.6461 124.408C58.6115 123.667 58.2167 115.378 58.1397 113.777L55.4155 113.217V113.051L55.0081 113.135L54.6039 113.051V113.217C54.5347 113.231 52.2793 113.693 51.8782 113.777C51.831 114.758 51.9207 112.889 51.4016 123.778C49.4167 122.32 48.2072 121.65 48.1238 121.565C48.0735 121.487 48.0279 121.394 47.9791 121.306C47.2792 120.016 46.9269 118.374 46.7916 116.941C46.7397 115.969 46.7036 115.57 46.8089 114.226C46.8341 113.767 46.9238 113.317 46.9788 112.855C47.0574 112.4 47.1597 111.949 47.2493 111.49C47.0669 111.917 46.8703 112.342 46.6973 112.778C46.5463 113.223 46.3622 113.659 46.238 114.115C45.5554 116.466 45.4343 118.025 45.5805 120.082C41.7255 117.905 36.9755 115.727 33.3612 114.316H33.3564Z" fill="#9FA8D7"/>
<path d="M0.139648 69.1696C0.139648 72.1628 0.948088 74.9656 2.35106 77.3784C0.968535 79.1275 0.139648 81.3342 0.139648 83.7376C0.139648 87.2436 1.89966 90.3374 4.58135 92.1887C2.89212 94.7619 1.90752 97.8385 1.90752 101.148C1.90752 110.182 9.23066 117.506 18.2635 117.506C20.714 117.506 23.037 116.963 25.1242 115.997C26.1481 119.598 29.4574 122.234 33.3863 122.234C37.8658 122.234 41.7837 119.142 42.1801 114.766C43.6019 115.807 45.1134 116.087 47.0118 116.087C49.2861 116.087 51.3529 115.201 52.8895 113.759C55.4705 115.461 58.5596 116.455 61.8814 116.455C62.0796 116.455 62.2762 116.447 62.4728 116.441C64.3807 123.36 70.7145 128.442 78.239 128.442C87.2718 128.442 92.4842 120.656 94.5949 112.084C94.6043 112.046 94.5918 112.007 94.5918 111.968C95.2209 112.042 95.861 112.084 96.5106 112.084C105.543 112.084 112.868 104.761 112.868 95.7277C112.868 90.3185 110.242 85.526 106.196 82.5485C108.81 80.6894 110.518 77.6364 110.518 74.1839C110.518 69.5361 107.428 65.6117 103.189 64.3503C104.288 62.1514 104.911 59.6725 104.911 57.0458C104.911 48.0128 97.588 40.6895 88.5536 40.6895C87.0327 40.6895 85.5621 40.9018 84.1638 41.2903C82.3441 38.4261 79.1449 36.5245 75.5007 36.5245C75.0744 36.5245 74.656 36.5528 74.2439 36.6047C71.7777 30.6969 65.9472 26.543 59.1447 26.543C52.8093 26.543 47.3201 30.1464 44.6038 35.414C42.0747 33.8112 39.0784 32.8801 35.8635 32.8801C26.8307 32.8801 19.5076 40.2034 19.5076 49.2365C19.5076 50.6017 19.6775 51.9277 19.992 53.1954C18.8659 52.95 17.6972 52.8179 16.4972 52.8179C7.46436 52.8179 0.139648 60.1413 0.139648 69.1759L0.139648 69.1696Z" fill="#BFC5E5"/>
<path d="M360.791 128.869C359.571 129.055 361.615 129.646 360.791 128.869V128.869Z" fill="#DFE2F2"/>
<path d="M325.257 128.839C327.707 128.839 330.03 128.297 332.118 127.331C333.141 130.931 335.649 133.744 339.532 134.327C343.881 134.98 347.432 133.53 349.172 129.036C350.594 130.077 352.346 130.694 354.244 130.694C356.519 130.694 358.585 129.808 360.122 128.366C360.441 128.577 360.655 128.742 360.79 128.869C360.996 128.838 361.294 128.817 361.712 128.817C361.91 128.817 363.299 130.782 363.496 130.774C365.403 137.693 379.021 140.985 387.173 139.33C396.027 137.533 400.854 133.239 402.774 124.247C402.782 124.209 402.771 124.169 402.771 124.13C403.4 124.204 404.04 124.247 404.69 124.247C413.723 124.247 419.86 116.094 419.86 107.061C419.86 101.652 417.233 96.8596 413.188 93.8821C415.802 92.023 394.663 87.0574 394.663 83.6049C394.663 78.957 414.418 76.9453 410.181 75.6839C411.28 73.485 404.522 71.8775 404.522 69.2524C404.522 60.2193 404.58 52.023 395.545 52.023C394.024 52.023 392.554 52.2354 391.156 52.6239C389.336 49.7597 386.137 47.8581 382.492 47.8581C382.066 47.8581 381.648 47.8864 381.236 47.9367C378.769 42.029 372.939 37.875 366.136 37.875C359.801 37.875 354.312 41.4785 351.596 46.746C349.066 45.1433 346.07 44.2121 342.855 44.2121C333.822 44.2121 326.498 51.5355 326.498 60.5685C326.498 61.9338 326.668 63.2597 326.982 64.5274C325.856 64.2821 324.687 64.15 323.487 64.15C314.455 64.15 318.119 70.657 318.119 79.69C318.119 82.6832 307.938 86.3024 309.341 88.7168C307.959 90.4658 325.077 89.176 325.077 91.5778C325.077 95.0838 308.888 101.674 311.572 103.525C309.882 106.099 308.898 109.175 308.898 112.485C308.898 121.518 316.221 128.841 325.254 128.841L325.257 128.839Z" fill="#DFE2F2"/>
<path d="M348.307 119.559C348.286 119.548 348.266 119.537 348.242 119.528C348.216 119.515 348.187 119.501 348.162 119.488C347.398 119.114 346.629 118.751 345.86 118.392C344.041 117.555 342.209 116.758 340.35 116.033C342.088 117.008 343.788 118.048 345.462 119.119C346.155 119.567 346.844 120.019 347.527 120.478C347.549 120.494 347.571 120.508 347.591 120.523C347.616 120.539 347.638 120.553 347.66 120.569C348.577 121.189 349.482 121.821 350.366 122.474C351.954 123.647 353.516 124.849 354.971 126.14C356.118 127.159 357.219 128.216 358.208 129.327L358.2 129.729L357.401 211.367C360.437 212.927 363.6 214.385 366.892 215.735L366.099 135.834C366.168 135.75 366.234 135.666 366.306 135.584C366.432 135.434 366.563 135.286 366.692 135.142C367.046 134.747 367.411 134.36 367.783 133.983C368.812 132.944 369.913 131.977 371.088 131.095C372.264 130.214 373.535 129.459 374.874 128.814C375.531 128.506 376.209 128.248 376.906 128.031C376.962 128.012 377.017 127.995 377.074 127.977C377.09 127.974 377.106 127.968 377.123 127.965C377.783 127.767 378.463 127.605 379.152 127.479C378.299 127.477 377.436 127.529 376.575 127.644C376.56 127.645 376.546 127.647 376.53 127.65C376.462 127.66 376.395 127.669 376.327 127.68C375.745 127.767 375.168 127.883 374.595 128.034C373.688 128.281 372.786 128.586 371.903 128.938C372.338 127.741 372.636 126.516 372.859 125.292C372.89 125.115 372.922 124.937 372.947 124.759C372.955 124.712 372.963 124.666 372.967 124.619C372.974 124.597 372.977 124.574 372.978 124.55C373.092 123.812 373.172 123.07 373.228 122.328C373.266 121.834 373.291 121.34 373.302 120.846C373.309 120.599 373.31 120.35 373.309 120.103C373.298 119.861 373.312 119.6 373.255 119.374C373.276 119.602 373.228 119.86 373.205 120.099C373.173 120.341 373.137 120.585 373.098 120.827C373.018 121.308 372.925 121.791 372.82 122.269C372.703 122.806 372.571 123.339 372.425 123.866C372.417 123.893 372.412 123.916 372.404 123.943C372.393 123.982 372.382 124.02 372.373 124.059C372.272 124.405 372.167 124.748 372.057 125.089C371.483 126.826 370.736 128.506 369.727 129.936C368.507 130.569 367.322 131.283 366.187 132.073C366.16 132.092 366.138 132.111 366.111 132.128C366.201 131.442 366.295 130.76 366.398 130.077C366.755 127.749 367.2 125.434 367.772 123.149C368.184 121.508 368.655 119.88 369.224 118.285C369.237 118.244 369.252 118.2 369.268 118.159C369.274 118.147 369.278 118.134 369.284 118.122C369.49 117.551 369.707 116.983 369.94 116.421C370.388 115.33 370.888 114.257 371.472 113.23C372.052 112.2 372.7 111.204 373.457 110.287C372.628 111.14 371.893 112.086 371.223 113.077C370.553 114.068 369.955 115.11 369.414 116.176C369.082 116.824 368.771 117.478 368.475 118.144C368.472 118.15 368.469 118.155 368.466 118.163C368.445 118.21 368.425 118.257 368.405 118.304C367.753 119.781 367.182 121.293 366.663 122.82C366.294 123.915 365.956 125.016 365.64 126.124L365.248 117.912L365.24 117.76V117.743L365.133 115.492L362.409 114.932V114.767L362.002 114.85L361.597 114.767V114.932L359.918 115.276L359.719 115.317L358.87 115.49L358.831 116.313L358.393 125.492C357.763 125.028 357.124 124.588 356.481 124.158C356.033 123.861 355.58 123.57 355.124 123.29C355.122 123.287 355.117 123.281 355.116 123.279C355.065 123.2 355.02 123.108 354.971 123.02C354.875 122.842 354.785 122.655 354.702 122.46C354.617 122.268 354.537 122.071 354.469 121.868C354.391 121.668 354.328 121.461 354.268 121.255C354.021 120.423 353.868 119.547 353.783 118.655C353.768 118.37 353.747 118.082 353.739 117.794C353.732 117.631 353.732 117.469 353.738 117.305C353.728 116.851 353.765 116.398 353.801 115.94C353.826 115.481 353.916 115.031 353.971 114.568C354.049 114.114 354.152 113.663 354.241 113.203C354.059 113.631 353.862 114.056 353.689 114.491C353.538 114.937 353.354 115.372 353.23 115.828C353.098 116.283 352.964 116.739 352.873 117.208C352.829 117.387 352.794 117.565 352.761 117.746C352.711 118.038 352.671 118.331 352.624 118.627C352.513 119.584 352.475 120.567 352.555 121.56C352.561 121.637 352.568 121.714 352.574 121.793C352.137 121.546 351.696 121.304 351.254 121.064C350.282 120.539 349.299 120.039 348.312 119.555L348.307 119.559Z" fill="#9FA8D7"/>
<path d="M311.574 93.9012C309.885 96.4744 308.901 99.551 308.901 102.86C308.901 111.893 316.224 119.218 325.257 119.218C327.707 119.218 330.03 118.676 332.117 117.71C333.141 121.31 336.451 123.946 340.378 123.946C344.857 123.946 348.775 120.854 349.172 116.478C350.593 117.52 352.105 117.8 354.003 117.8C356.278 117.8 358.344 116.914 359.881 115.472C362.462 117.174 365.551 118.168 368.873 118.168C369.071 118.168 369.268 118.16 369.464 118.152C371.372 125.071 377.706 130.153 385.231 130.153C394.263 130.153 399.476 122.367 401.587 113.795C401.596 113.757 401.583 113.718 401.583 113.679C402.213 113.753 402.853 113.795 403.502 113.795C412.535 113.795 419.86 106.472 419.86 97.4386C419.86 92.0295 417.233 87.2369 413.188 84.2594C415.802 82.4003 417.51 79.3473 417.51 75.8949C417.51 71.247 414.419 67.3227 410.18 66.0612C411.28 63.8623 411.903 61.3835 411.903 58.7568C411.903 49.7237 404.58 42.4004 395.545 42.4004C394.024 42.4004 392.554 42.6127 391.155 43.0012C389.336 40.137 386.136 38.2354 382.492 38.2354C382.066 38.2354 381.648 38.2637 381.236 38.3156C378.769 32.4079 372.939 28.2539 366.136 28.2539C359.801 28.2539 354.312 31.8574 351.595 37.1249C349.066 35.5222 346.07 34.591 342.855 34.591C333.822 34.591 326.498 41.9144 326.498 50.9474C326.498 52.3127 326.667 53.6386 326.982 54.9064C325.856 54.661 324.687 54.5289 323.487 54.5289C314.454 54.5289 307.13 61.8522 307.13 70.8868C307.13 73.88 307.938 76.6829 309.341 79.0957C307.959 80.8447 307.13 83.0515 307.13 85.4548C307.13 88.9608 308.89 92.0546 311.571 93.9059L311.574 93.9012Z" fill="#BFC5E5"/>
<path d="M394.911 205.487C394.936 216.758 393.56 227.465 390.922 236.292C390.667 237.141 390.402 237.973 390.125 238.787C389.999 238.991 389.857 239.196 389.702 239.398C389.431 239.751 389.118 240.102 388.761 240.449C388.56 240.647 388.344 240.844 388.115 241.041H26.6165C26.5584 240.992 26.5033 240.945 26.4483 240.894C26.3382 240.795 26.2296 240.698 26.1258 240.599C26.0739 240.55 26.022 240.501 25.9717 240.451C25.8883 240.369 25.8065 240.287 25.7263 240.204C25.6477 240.122 25.5706 240.04 25.4967 239.957C24.4539 238.801 23.883 237.621 23.8169 236.423C23.8248 236.139 23.8373 235.855 23.8546 235.569C24.553 223.67 33.1611 210.362 32.9991 200.031V200.004C32.9928 199.598 32.974 199.194 32.9425 198.784C32.9535 198.784 32.9677 198.779 32.9787 198.777C103.698 186.559 248.966 169.397 394.791 200.065C394.867 201.884 394.908 203.693 394.912 205.487H394.911Z" fill="#BFC5E5"/>
<path d="M390.764 236.206C390.764 236.244 390.764 236.282 390.764 236.318C390.759 236.488 390.745 236.658 390.72 236.827C390.644 237.354 390.469 237.88 390.201 238.4C390.128 238.539 390.051 238.676 389.966 238.812C389.84 239.017 389.699 239.221 389.543 239.424C389.273 239.777 388.96 240.127 388.603 240.475C388.401 240.673 388.186 240.87 387.956 241.066C372.745 254.069 297.608 263.944 207.209 263.944C116.81 263.944 41.6688 254.068 26.4611 241.066C26.4029 241.018 26.3462 240.969 26.2896 240.92C26.1795 240.821 26.071 240.723 25.9672 240.624C25.9153 240.576 25.8634 240.527 25.813 240.476C25.7297 240.395 25.6479 240.313 25.5677 240.23C25.489 240.148 25.412 240.066 25.338 239.983C24.2953 238.827 23.7243 237.647 23.6583 236.448C23.6535 236.373 23.6504 236.299 23.6504 236.223V236.206C23.6504 236.146 23.6504 236.087 23.6551 236.027C23.6614 235.884 23.674 235.737 23.696 235.594C25.8492 220.558 107.189 208.467 207.21 208.467C307.232 208.467 389.266 220.661 390.748 235.789C390.76 235.929 390.768 236.068 390.768 236.208L390.764 236.206Z" fill="#9FA8D7"/>
<path d="M210.137 65.5014C209.664 65.8238 209.918 66.5662 210.491 66.5332C212.119 66.4404 215.934 66.2768 219.253 66.5568C220.626 66.6732 221.811 65.5769 221.779 64.1991C221.767 63.636 221.564 62.9801 221.041 62.2361C219.027 59.375 215.526 62.1071 215.56 63.5589C215.56 63.5589 214.852 61.3726 212.702 61.7548C210.552 62.137 211.312 65.3174 211.312 65.3174C211.312 65.3174 210.618 65.1711 210.137 65.4998V65.5014Z" fill="white"/>
<path d="M145.486 53.8549C138.978 52.6889 136.833 59.3479 136.833 59.3479C136.935 54.9251 126.332 46.6047 120.234 55.3182C118.651 57.5808 118.037 59.5791 118.001 61.2934C117.909 65.4883 121.495 68.8277 125.652 68.4743C135.697 67.6221 147.253 68.1176 152.181 68.4016C153.912 68.5007 154.684 66.2414 153.252 65.2571C151.797 64.2563 149.696 64.7022 149.696 64.7022C149.696 64.7022 151.997 55.0176 145.489 53.8516L145.486 53.8549Z" fill="white"/>
<path d="M199.932 98.0746C191.307 97.0365 190.861 107.178 190.861 107.178C190.861 107.178 185.973 101.798 183.307 108.353C183.307 108.353 178.046 105.698 175.518 108.885C174.762 109.84 174.889 111.117 175.54 111.894H210.143C210.289 111.406 210.237 110.848 209.896 110.384C209.281 109.542 208.164 108.83 206.16 108.707C206.16 108.707 208.326 99.0844 199.934 98.0746H199.932Z" fill="white"/>
<path d="M303.934 9.61264C290.465 8.04418 289.77 23.3743 289.77 23.3743C289.77 23.3743 282.134 15.2413 277.974 25.1494C277.974 25.1494 269.756 21.1351 265.809 25.9527C264.628 27.3937 264.826 29.3268 265.843 30.5H319.88C320.107 29.7629 320.028 28.9188 319.496 28.2174C318.536 26.9474 316.79 25.8686 313.662 25.6824C313.662 25.6824 317.045 11.1378 303.937 9.6101L303.934 9.61264Z" fill="white"/>
<path d="M252.07 218.816C251.871 217.391 252.317 214.939 253.433 211.105C251.224 211.112 249.367 210.132 247.109 210.167C246.492 213.772 245.538 219.695 245.538 219.695L245.436 224.375L261.156 224.494C261.156 224.494 261.025 224.561 256.39 221.633C256.047 221.417 252.262 220.195 252.07 218.818V218.816Z" fill="#FB9390"/>
<path d="M245.358 225.577H261.586C262.186 225.524 262.333 225.032 262.125 224.73C261.696 224.11 258.532 222.616 256.404 221.627C252.67 222.019 246.111 220.482 245.521 219.619C244.497 222.484 245.025 225.503 245.358 225.577Z" fill="#2B3569"/>
<path d="M232.486 218.817C232.288 217.393 231.949 215.608 232.445 210.856C230.236 210.86 228.134 210.446 225.876 210.481C225.876 214.19 225.953 219.694 225.953 219.694L225.851 224.375L241.571 224.493C241.571 224.493 241.441 224.56 236.805 221.633C236.462 221.416 232.678 220.194 232.486 218.817Z" fill="#EF7F7F"/>
<path d="M225.775 225.579H242.003C242.603 225.526 242.75 225.034 242.542 224.732C242.114 224.112 238.949 222.618 236.821 221.629C233.088 222.02 226.528 220.484 225.938 219.621C224.914 222.486 225.443 225.505 225.775 225.579Z" fill="#2B3569"/>
<path d="M243.909 83.059L249.821 76.82C249.821 76.82 256.15 80.3006 263.53 83.6262C265.558 80.0966 268.869 68.4814 269.047 67.9285C269.224 67.3736 265.168 60.3959 266.076 60.2224C266.984 60.047 268.161 63.948 269.12 63.5522C270.079 63.1563 272.546 54.1078 273.123 54.6015C274.203 55.5258 271.826 60.2306 272.395 60.5734C272.964 60.9161 274.409 55.3585 275.508 55.5951C276.608 55.8318 273.652 60.655 273.976 61.1181C274.3 61.5812 277.389 57.058 278.028 58.1046C278.375 58.6739 275.178 62.0444 275.835 62.4218C276.492 62.7993 279.373 60.6754 279.717 61.363C280.062 62.0505 277.028 62.7666 276.188 64.507C275.345 66.2473 273.815 66.9247 273.307 70.2156C272.801 73.5025 271.411 91.0915 267.825 92.5034C264.695 93.7357 243.907 83.059 243.907 83.059H243.909Z" fill="#FB9390"/>
<path d="M247.73 116.709L242.936 119.384L233.188 134.288L250.619 175.317C250.619 175.317 248.657 181.487 248.016 184.57C247.347 187.796 245.704 215.48 245.704 215.48L253.141 215.604C253.141 215.604 260.205 186.133 261.402 176.568C262.855 164.953 254.01 137.289 254.01 137.289C252.362 131.646 248.804 120.033 248.804 120.033C248.804 120.033 247.934 117.203 247.728 116.709H247.73Z" fill="#384589"/>
<path d="M231.039 111.109C231.039 111.109 231.535 114.615 229.552 118.613C228.344 121.052 226.255 122.963 224.759 125.95C221.929 131.602 220.393 139.63 221.454 144.79C221.454 144.79 227.305 167.133 227.073 175.3C226.987 178.311 225.955 183.736 225.294 187.405C224.71 190.647 224.914 214.701 224.914 214.701L232.816 214.854L239.175 175.4L241.865 140.33L247.73 116.708L231.039 111.109Z" fill="#33407D"/>
<path d="M249.501 58.9883C248.734 55.3669 247.943 51.7312 244.344 49.1237C241.432 47.012 238.302 46.4101 234.983 47.6118C225.583 51.0211 230.639 58.4823 218.973 66.4332C215.347 68.904 213.972 69.765 211.371 73.0579C207.729 77.6669 205.74 83.8509 207.57 88.9414C211.355 99.4691 223.084 102.511 229.219 100.279C240.638 96.1251 250.154 81.6413 250.787 77.6893C251.464 73.4598 249.995 61.3224 249.501 58.9904V58.9883Z" fill="#2B3569"/>
<path d="M250.372 86.9773C253.019 88.2015 257.811 90.0377 257.811 90.0377L260.539 81.4135C245.127 72.6465 246.337 74.0605 234.769 74.2339C225.528 74.3665 221.654 72.6017 213.697 94.0836C213.697 94.0836 219.754 96.8053 221.923 97.6785C222.855 95.0221 224.541 89.7276 225.524 92.7472C227.009 97.3092 228.097 101.914 228.825 106.654C229.288 109.463 230.296 113.062 229.766 115.925C229.766 115.925 236.06 117.22 240.867 117.43C240.881 117.43 240.893 117.43 240.908 117.43C243.232 117.371 245.608 117.167 247.728 116.71C247.728 116.71 248.671 96.7828 249.175 95.9504C249.732 95.0302 252.088 92.0555 250.085 87.6057C249.73 86.8182 249.826 86.7264 250.372 86.9794V86.9773Z" fill="#07DA9E"/>
<path d="M236.217 65.3654C236.217 65.3654 235.48 71.3086 235.048 73.3713C234.593 75.5299 233.911 82.3301 238.388 83.4339C242.864 84.5377 241.481 76.0359 241.554 73.8406C241.628 71.6453 242.897 63.9902 242.897 63.9902L236.217 65.3654Z" fill="#FB9390"/>
<path d="M235.973 67.2589C236.018 67.2854 236.06 67.316 236.107 67.3425C238.582 68.7605 240.735 68.5382 242.351 67.4324C242.638 65.5329 242.895 63.9863 242.895 63.9863L236.215 65.3615C236.215 65.3615 236.118 66.1531 235.973 67.2569V67.2589Z" fill="#EF7F7F"/>
<path d="M237.561 49.8867C237.561 49.8867 234.938 50.6252 233.426 53.2286C231.914 55.834 231.159 63.3156 236.727 66.5086C242.295 69.7016 246.247 64.5867 246.079 59.8002C245.91 55.0158 244.578 48.6849 237.561 49.8846V49.8867Z" fill="#FB9390"/>
<path d="M247.31 57.7467C247.371 58.9913 246.841 60.0278 246.121 60.0645C245.403 60.1012 244.77 59.1219 244.709 57.8773C244.648 56.6328 245.18 55.5963 245.898 55.5596C246.617 55.5229 247.249 56.5022 247.31 57.7467Z" fill="#FB9390"/>
<path d="M238.351 49.6915C238.351 49.6915 235.35 57.518 232.412 58.3504C229.474 59.1849 229.709 63.0328 229.709 63.0328C229.709 63.0328 229.333 54.1352 232.016 51.9542C234.699 49.7731 238.351 49.6895 238.351 49.6895V49.6915Z" fill="#2B3569"/>
<path d="M233.671 59.8807C234.124 61.1049 233.826 62.3453 233.008 62.6554C232.188 62.9635 231.157 62.2229 230.704 61.0008C230.251 59.7767 230.549 58.5362 231.368 58.226C232.188 57.918 233.218 58.6586 233.671 59.8807Z" fill="#FB9390"/>
<path d="M238.804 121.568C238.914 121.582 239.404 121.519 239.806 121.529C240.361 121.539 240.846 121.623 240.846 121.623C240.846 121.623 241.065 121.435 241.481 121.241C241.654 121.162 241.938 121.133 242.13 121.043C242.328 120.949 242.497 120.78 242.685 120.696C243.176 120.484 243.627 120.433 243.776 120.692C243.901 120.905 241.169 122.575 241.169 122.575C238.641 122.59 235.993 123.879 230.133 120.058C226.787 118.595 210.534 110.569 210.208 108.818C210.024 107.837 212.517 100.237 214.556 94.4648C216.127 95.1687 219.469 96.656 221.337 97.4395C219.622 101.073 217.6 105.892 217.812 106.482C217.867 106.635 218.069 106.912 229.056 114.106C229.333 114.286 229.617 114.474 229.904 114.661C230.678 115.167 231.506 115.708 232.383 116.277L235.517 115.951C235.517 115.951 240.479 116.294 240.628 116.859C240.693 117.116 240.281 117.246 239.775 117.32H239.761C239.688 117.33 239.612 117.34 239.539 117.35H239.528C238.984 117.416 238.408 117.424 238.27 117.475C238.11 117.53 237.794 117.654 237.521 117.842C240.614 119.107 240.377 118.656 241.403 118.591C241.66 118.57 241.934 118.646 242.177 118.626C242.593 118.591 242.925 118.344 243.248 118.324C243.719 118.299 244.101 118.517 244.184 118.605C244.292 118.715 244.09 118.872 243.693 119.052C241.303 120.088 239.324 119.691 238.69 119.846C238.263 119.95 239.043 120.109 240.257 119.98C240.559 119.95 240.957 120.06 241.358 119.966C241.626 119.907 241.869 119.733 242.132 119.668C242.375 119.609 242.623 119.613 242.825 119.574C243.093 119.525 243.466 119.321 243.678 119.297C244.472 119.207 244.858 119.346 244.947 119.421C245.131 119.584 241.526 120.968 241.526 120.968C241.526 120.968 239.043 121.325 238.486 121.325C238.486 121.325 238.153 121.474 238.804 121.572V121.568Z" fill="#FB9390"/>
<path d="M266.948 48.9239L268.831 45.4779L267.06 41.9727C266.858 41.5728 267.201 41.1158 267.642 41.1995L271.502 41.9258L274.289 39.1572C274.607 38.843 275.148 39.0266 275.205 39.4714L275.707 43.3662L279.2 45.1596C279.598 45.3637 279.588 45.937 279.184 46.1267L275.633 47.8079L275.007 51.6844C274.936 52.1271 274.389 52.2944 274.081 51.9679L271.384 49.1116L267.503 49.7134C267.06 49.7828 266.732 49.3136 266.946 48.9219L266.948 48.9239Z" fill="#07DA9E"/>
<path d="M12.1045 67.0297L14.4181 63.8571L13.1164 60.152C12.9675 59.7296 13.3674 59.3216 13.7938 59.4603L17.5275 60.6804L20.6491 58.2974C21.0041 58.026 21.5182 58.279 21.5162 58.7279L21.5101 62.6554L24.7418 64.8874C25.1091 65.1424 25.0275 65.7076 24.601 65.8443L20.8633 67.0521L19.7391 70.8143C19.6106 71.2428 19.0475 71.3387 18.7843 70.9755L16.4808 67.7948L12.5533 67.8887C12.1065 67.8989 11.8413 67.3928 12.1045 67.0317V67.0297Z" fill="#BFC5E5"/>
<path d="M114.889 22.2289C114.738 20.0499 116.38 18.1626 118.559 18.0096C120.738 17.8586 122.627 19.5011 122.778 21.6801C122.929 23.859 121.287 25.7463 119.108 25.8993C116.929 26.0503 115.042 24.4079 114.889 22.2289Z" fill="#BFC5E5"/>
<path d="M121.209 33.0247C120.972 31.878 120.829 30.6498 120.44 29.544C120.103 28.5932 118.62 28.8829 118.695 29.9051C118.787 31.1558 119.179 32.4228 119.44 33.649C119.546 34.1447 120.203 34.3753 120.637 34.2223C121.168 34.0366 121.313 33.5245 121.211 33.0247H121.209Z" fill="#BFC5E5"/>
<path d="M127.985 28.1242C126.675 27.351 125.532 26.3941 124.322 25.48C123.378 24.7659 122.36 25.9942 123.137 26.843C124.253 28.061 125.718 29.0138 127.132 29.8483C127.579 30.1114 128.201 29.8543 128.419 29.4137C128.664 28.9199 128.433 28.3895 127.985 28.1242Z" fill="#BFC5E5"/>
<path d="M125.503 21.0464C125.208 21.2851 125.148 21.6259 125.33 21.9585C125.773 22.7623 126.899 22.7215 127.697 22.695C128.531 22.6664 129.364 22.4971 130.153 22.2277C131.318 21.8299 130.688 20.0223 129.517 20.4201C127.229 21.2015 126.362 20.3527 125.501 21.0444L125.503 21.0464Z" fill="#BFC5E5"/>
<path d="M124.245 13.3588C123.094 15.042 122.154 15.6112 122.301 16.5375C122.387 17.0802 122.815 17.3373 123.337 17.2189C123.955 17.0781 124.292 16.4232 124.663 15.9642C125.018 15.5235 125.367 15.0808 125.686 14.6115C125.973 14.1851 126.014 13.6322 125.592 13.267C125.239 12.9589 124.539 12.9324 124.247 13.3608L124.245 13.3588Z" fill="#BFC5E5"/>
<path d="M119.761 13.0661C119.393 12.046 119.312 11.6746 118.834 11.1993C118.42 10.7871 117.543 11.0503 117.486 11.6583C117.419 12.3663 117.567 12.6295 117.953 13.7027C118.129 14.1882 118.683 14.4596 119.175 14.2882C119.661 14.1169 119.936 13.5558 119.761 13.0661Z" fill="#BFC5E5"/>
<path d="M114.919 15.5372C113.261 14.2763 112.922 13.9213 112.271 13.9907C111.89 14.0315 111.459 14.3987 111.543 14.8272C111.698 15.6249 112.161 15.8412 113.687 16.9531C114.095 17.251 114.658 17.2673 115.011 16.8613C115.327 16.4981 115.325 15.8452 114.919 15.5372Z" fill="#BFC5E5"/>
<path d="M108.254 21.3138C107.601 21.6606 107.862 22.7909 108.57 22.8827C109.249 22.9725 109.51 22.8624 112.803 22.2605C113.311 22.1687 113.732 21.7953 113.693 21.2383C113.66 20.765 113.183 20.2569 112.671 20.3487C109.249 20.9649 108.908 20.9628 108.252 21.3117L108.254 21.3138Z" fill="#BFC5E5"/>
<path d="M113.413 26.7024C111.607 28.4488 111.344 28.1407 110.63 29.2098C110.304 29.6974 110.842 30.4769 111.41 30.3728C112.138 30.2402 112.334 30.1157 113.283 29.3649C113.833 28.9283 114.362 28.459 114.868 27.9714C115.243 27.6103 115.141 26.9309 114.774 26.6105C114.352 26.2433 113.789 26.3413 113.413 26.7044V26.7024Z" fill="#BFC5E5"/>
<path d="M133.368 115.019C133.368 115.019 134.518 113.729 136.53 113.923C138.323 114.096 139.421 115.641 139.262 117.3C139.076 119.221 137.173 121.331 132.609 122.884C128.426 120.486 126.961 118.05 127.147 116.131C127.308 114.472 128.681 113.166 130.472 113.337C132.484 113.531 133.368 115.019 133.368 115.019Z" fill="#07DA9E"/>
<path d="M118.472 114.346C120.185 114.797 121.587 115.073 122.977 115.279C123.436 115.346 124.209 115.599 124.584 115.254C124.78 115.075 124.841 114.83 124.688 114.595C124.407 114.165 123.695 114.212 123.234 114.144C121.826 113.934 120.243 113.632 118.661 113.232C118.366 113.157 118.057 113.41 118.008 113.695C117.953 114.02 118.174 114.271 118.472 114.348V114.346Z" fill="#07DA9E"/>
<path d="M141.427 121.456C142.098 121.568 142.771 121.666 143.445 121.766C144.089 121.862 144.832 122.088 145.477 121.962C145.95 121.866 146.083 121.276 145.634 121.035C145.054 120.723 144.287 120.723 143.641 120.629C142.967 120.531 142.294 120.429 141.619 120.342C140.898 120.248 140.707 121.339 141.427 121.458V121.456Z" fill="#07DA9E"/>
<path d="M123.354 124.092C124.413 122.802 125.506 122.521 126.375 122.096C126.839 121.87 126.702 121.213 126.173 121.215C124.729 121.223 123.342 122.306 122.479 123.38C122.024 123.945 122.893 124.653 123.354 124.09V124.092Z" fill="#07DA9E"/>
<path d="M130.574 128.821C130.654 128.121 130.862 127.458 131.217 126.848C131.433 126.474 132.404 125.489 131.646 125.163C130.931 124.854 130.344 126.017 130.089 126.507C129.746 127.164 129.532 127.892 129.456 128.629C129.381 129.353 130.495 129.551 130.576 128.821H130.574Z" fill="#07DA9E"/>
<path d="M136.924 125.451C137.256 125.779 137.589 126.108 137.922 126.436C138.254 126.765 138.552 127.214 139.06 127.187C139.346 127.173 139.497 126.912 139.503 126.657C139.515 126.193 138.958 125.834 138.654 125.536C138.319 125.21 137.985 124.884 137.65 124.557C137.428 124.341 137.024 124.414 136.84 124.641C136.628 124.902 136.701 125.23 136.924 125.451Z" fill="#07DA9E"/>
<path d="M129.367 110.19C128.461 106.533 128.492 106.521 128.247 106.195C127.996 105.86 127.425 105.974 127.357 106.403C127.292 106.827 127.31 106.758 128.277 110.6C128.355 110.906 128.757 111.042 129.028 110.94C129.353 110.818 129.444 110.498 129.369 110.19H129.367Z" fill="#07DA9E"/>
<path d="M135.512 111.087C135.822 110.55 136.073 109.985 136.263 109.395C136.438 108.846 136.783 108.028 136.32 107.557C136.22 107.455 136.01 107.426 135.883 107.486C135.357 107.737 135.338 108.518 135.173 109.024C134.994 109.575 134.755 110.109 134.484 110.621C134.341 110.891 134.498 111.248 134.765 111.368C135.065 111.505 135.359 111.352 135.512 111.089V111.087Z" fill="#07DA9E"/>
<path d="M144.089 112.97C144.23 112.723 144.056 112.444 143.844 112.319C143.408 112.064 142.73 112.421 142.306 112.593C141.812 112.791 141.341 113.038 140.884 113.313C140.621 113.472 140.588 113.874 140.757 114.107C140.955 114.38 141.282 114.382 141.551 114.233C143.31 113.256 143.738 113.578 144.085 112.97H144.089Z" fill="#07DA9E"/>
<path d="M328.359 235.254C328.359 235.254 328.71 238.281 328.71 238.796V239.31L328.459 239.832L328.359 240.04L330.169 242.58C330.169 242.58 337.44 242.688 337.602 242.688C337.763 242.688 336.628 240.932 336.628 240.932C336.628 240.932 334.223 239.12 333.79 237.851C333.358 236.58 334.158 233.932 334.158 233.932L328.357 235.256L328.359 235.254Z" fill="#FB9390"/>
<path d="M293.312 217.139C293.312 217.139 290.722 218.747 290.321 219.065L289.919 219.384L289.666 219.906L289.566 220.112L286.45 220.273C286.45 220.273 281.845 214.646 281.743 214.518C281.643 214.391 283.067 214.709 283.067 214.709C283.067 214.709 285.975 215.103 287.238 214.65C288.501 214.199 291.059 211.682 291.059 211.682L293.312 217.137V217.139Z" fill="#FB9390"/>
<path d="M316.844 188.736L288.95 212.495L293.249 218.577C293.249 218.577 321.914 200.778 323.414 200.576C324.913 200.372 326.129 201.062 326.415 202.157C326.699 203.253 327.421 236.097 327.421 236.097H334.868L338.75 194.743L316.844 188.734V188.736Z" fill="#5F6EBD"/>
<path d="M357.033 154.849C359.095 153.496 363.945 148.294 365.587 146.523C365.606 146.314 365.761 145.111 367.083 143.583C368.015 142.503 368.721 140.039 369.333 140.736C369.945 141.434 368.427 143.393 369.121 143.405C369.817 143.417 373.265 139.541 373.82 140.173C374.375 140.806 370.872 144.254 371.494 144.264C372.116 144.276 374.958 140.785 375.744 141.679C376.527 142.575 372.016 145.476 372.437 145.955C372.857 146.435 375.652 144.533 376.282 145.254C376.913 145.974 372.341 147.671 372.706 147.677C373.071 147.683 375.711 147.612 375.729 148.12C375.752 148.693 369.054 149.589 368.234 150.583C366.483 153.37 363.368 158.458 360.213 160.692C356.353 163.424 347.433 169.22 347.433 169.22L343.002 163.495C343.002 163.495 354.584 156.45 357.033 154.845V154.849Z" fill="#FB9390"/>
<path d="M369.121 144.637C369.293 144.975 369.366 145.343 369.39 145.712C369.378 145.771 369.539 146.969 368.519 147.879C368.917 147.138 369.356 146.316 369.121 144.637Z" fill="#F48C7F"/>
<path d="M316.138 148.587C314.5 146.742 311.18 140.452 310.058 138.314C310.095 138.108 310.258 136.906 309.385 135.084C308.767 133.799 308.73 131.234 307.957 131.749C307.183 132.263 308.136 134.55 307.463 134.381C306.79 134.211 304.474 129.568 303.772 130.033C303.07 130.498 305.551 134.742 304.947 134.591C304.345 134.44 302.513 130.327 301.522 130.986C300.53 131.645 304.125 135.625 303.595 135.978C303.064 136.331 300.863 133.764 300.065 134.295C299.267 134.825 303.238 137.659 302.883 137.569C302.528 137.48 300 136.721 299.849 137.206C299.677 137.755 305.908 140.369 306.441 141.544C307.402 144.692 309.077 150.419 311.537 153.4C314.549 157.046 321.643 164.974 321.643 164.974L327.417 160.608C327.417 160.608 318.078 150.778 316.136 148.591L316.138 148.587Z" fill="#FB9390"/>
<path d="M307.141 135.568C306.886 135.85 306.718 136.187 306.6 136.537C306.598 136.599 306.127 137.711 306.875 138.855C306.686 138.037 306.477 137.129 307.143 135.568H307.141Z" fill="#F48C7F"/>
<path d="M328.467 161.624C329.308 160.37 330.754 159.66 332.26 159.762C336.69 160.064 345.671 160.774 346.524 161.624C347.658 162.759 351.065 170.165 347.821 180.546C344.577 190.925 342.794 189.843 340.144 189.843C337.493 189.843 325.007 183.951 325.007 183.951L328.467 161.624Z" fill="#5F6EBD"/>
<path d="M320.819 152.812L315.612 159.607L322.078 169.224C322.078 169.224 321.47 176.369 320.537 178.599C319.605 180.829 314.212 189.992 314.212 189.992C314.212 189.992 327.309 198.021 340.12 196.845C340.12 196.845 343.729 178.275 344.741 176.492C345.755 174.706 355.526 165.868 355.526 165.868L350.782 158.205L342.592 162.747C342.592 162.747 327.623 160.327 326.901 159.607C326.181 158.886 320.819 152.812 320.819 152.812Z" fill="#DDE8FE"/>
<path d="M337.712 138.92C337.712 138.92 332.658 136.243 330.928 140.677C330.928 140.677 326.387 140.218 327.17 144.92C327.17 144.92 322.602 147.218 325.495 153.137C325.495 153.137 324.224 158.704 330.738 159.055C330.738 159.055 331.712 161.028 334.684 160.569C337.657 160.11 338.414 159.327 338.414 159.327C338.414 159.327 343.684 160.867 345.279 156.111C345.279 156.111 348.901 155.246 346.469 150.597C346.469 150.597 349.631 144.57 344.063 142.758C344.063 142.758 343.415 136.594 337.712 138.92Z" fill="#7F8BCA"/>
<path d="M339.754 151.977C339.344 153.124 339.638 154.277 340.413 154.556C341.188 154.834 342.149 154.13 342.559 152.983C342.969 151.836 342.676 150.684 341.9 150.404C341.125 150.127 340.164 150.831 339.754 151.977Z" fill="#FB9390"/>
<path d="M326.119 149.164C326.062 150.38 326.68 151.399 327.502 151.437C328.324 151.476 329.036 150.521 329.096 149.305C329.153 148.089 328.533 147.071 327.71 147.032C326.888 146.994 326.176 147.948 326.119 149.164Z" fill="#FB9390"/>
<path d="M331.899 157.221C331.899 157.3 331.242 160.122 330.893 161.613C330.763 162.17 331.044 162.74 331.564 162.976C332.954 163.611 335.688 164.496 337.575 162.785C337.746 162.627 337.84 162.403 337.832 162.17L337.599 155.436L331.897 157.219L331.899 157.221Z" fill="#FB9390"/>
<path d="M331.548 158.8C333.019 159.54 334.867 159.557 336.942 158.341C337.205 158.188 337.452 158.023 337.685 157.851L337.601 155.438L331.899 157.221C331.899 157.259 331.746 157.939 331.548 158.802V158.8Z" fill="#EF7F7F"/>
<path d="M335.945 141.667C335.945 141.667 338.434 142.324 339.897 144.746C341.36 147.168 342.168 154.168 336.945 157.23C331.722 160.293 327.921 155.549 328.021 151.065C328.119 146.578 330.114 140.845 335.947 141.667H335.945Z" fill="#FB9390"/>
<path d="M327.423 159.841C325.019 161.659 322.502 170.979 321.549 173.411L320.782 177.879L330.567 160.596C330.567 160.596 327.941 159.452 327.423 159.843V159.841Z" fill="#5F6EBD"/>
<path d="M339.301 162.198C339.301 162.198 339.007 173.679 339.873 177.627C340.738 181.573 343 182.952 343 182.952L344.112 178.361C344.112 178.361 343 168.221 342.588 162.747C342.525 161.917 339.299 162.198 339.299 162.198H339.301Z" fill="#5F6EBD"/>
<path d="M327.035 244.439C325.925 244.298 327.843 240.448 328.459 239.832L336.63 240.932C336.63 240.932 340.564 242.756 341.496 243.688C341.717 243.91 341.747 244.296 340.786 244.439C337.704 244.898 329.498 244.751 327.035 244.439Z" fill="#2B3569"/>
<path d="M286.86 223.947C287.819 224.524 289.564 220.774 289.664 219.907L283.065 214.712C283.065 214.712 277.975 213.254 276.949 214.28C276.016 215.212 284.683 222.641 286.86 223.949V223.947Z" fill="#2B3569"/>
<path d="M160.879 10L172.637 26.1384L180.421 17.6224L160.879 10Z" fill="#5F6EBD"/>
<path d="M181.475 13.1624L180.421 17.6224L160.879 10L181.475 13.1624Z" fill="#92B5F9"/>
<path d="M180.421 19.326L160.879 10L179.043 26.1384L180.421 19.326Z" fill="#92B5F9"/>
<path d="M192.291 38.6637C192.146 38.6494 188.712 38.2964 184.358 35.5869C179.988 32.8652 178.352 28.1175 178.352 27.3545C178.352 27.0627 178.588 26.8281 178.878 26.8281C179.168 26.8281 179.4 27.0587 179.404 27.3443C179.451 27.8523 180.849 32.1613 184.913 34.6912C189.04 37.2599 192.356 37.6109 192.389 37.6149C192.678 37.6435 192.89 37.9006 192.862 38.1903C192.833 38.48 192.578 38.6922 192.289 38.6637H192.291Z" fill="#BFC5E5"/>
<path d="M213.65 43.4393C207.558 42.2172 201.731 39.9688 196.33 36.7534C191.88 34.1051 188.294 30.0695 183.756 27.8293C183.495 27.7007 183.387 27.3845 183.517 27.1233C183.646 26.8622 183.962 26.7561 184.223 26.8847C188.92 29.2044 192.48 33.236 196.869 35.8495C202.167 39.0038 207.884 41.2093 213.858 42.4069C216.053 42.8476 218.657 43.0088 221.593 42.8864C221.884 42.8741 222.129 43.1006 222.142 43.3903C222.154 43.6821 221.927 43.9269 221.638 43.9391C219.03 44.0473 216.223 43.9555 213.652 43.4393H213.65Z" fill="#BFC5E5"/>
<path d="M90.3276 162.039C90.5908 162.021 92.5759 165.228 93.8205 170.147C95.063 175.066 97.7133 184.147 97.7133 184.147C97.7133 184.147 102.012 192.825 103.173 193.985C104.336 195.148 105.462 193.947 106.633 194.31C106.994 194.422 108.11 195.391 108.11 195.391C108.11 195.391 110.12 199.743 109.824 200.041C109.526 200.339 106.419 201.175 104.256 200.474C102.094 199.772 92.0394 187.985 92.0394 187.985C92.0394 187.985 83.8436 162.474 90.3296 162.037L90.3276 162.039Z" fill="#FB9390"/>
<path d="M129.609 165.951L128.635 164.941C128.635 164.941 126.852 168.145 124.798 172.684C122.743 177.226 120.285 182.82 119.446 183.659C118.608 184.497 111.554 194.199 109.418 195.145C107.282 196.092 107.943 195.676 106.229 195.472C104.942 195.317 105.083 196.249 105.921 196.682C106.148 196.798 106.405 196.875 106.917 197.241C107.937 197.965 108.81 198.993 109.451 199.591C109.698 199.822 109.182 200.246 108.892 199.956C108.602 199.667 107.576 198.085 107.149 198.085C106.723 198.085 107.007 199.161 107.19 199.505C107.372 199.85 106.968 199.748 106.603 198.897C106.237 198.047 105.974 197.194 105.448 197.316C105.023 197.414 105.283 198.591 105.399 199.044C105.276 198.614 104.94 197.539 104.615 197.539C104.209 197.539 104.028 197.579 104.028 198.379C104.028 199.179 104.311 200.038 105.244 200.744C106.176 201.45 108.788 200.978 109.861 200.552C110.593 200.26 111.324 199.069 112.058 198.673C115.337 196.904 118.707 194.792 122.882 189.227C127.991 182.414 129.984 176.332 129.984 176.332L129.613 165.949L129.609 165.951Z" fill="#FB9390"/>
<path d="M127.717 243.234C127.717 243.234 127.177 240.963 127.717 238.207C128.258 235.451 131.178 221.395 131.178 218.476C131.178 215.556 132.583 211.286 132.583 211.286L123.988 209.123L123.123 217.502C123.123 217.502 122.664 237.046 121.88 237.83C121.097 238.613 117.781 239.772 116.745 239.772C115.584 239.772 113.746 239.849 113.746 240.435C113.746 241.02 113.907 241.398 113.907 241.398L127.719 243.236L127.717 243.234Z" fill="#FB9390"/>
<path d="M137.952 210.052L139.015 217.285C139.015 217.285 141.545 238.483 140.961 239.067C140.378 239.65 137.727 241.358 136.511 241.493C135.295 241.627 133.583 242.45 133.583 243.098C133.583 244.41 147.261 243.345 147.261 243.345C147.261 243.345 147.694 242.368 147.261 240.936C146.829 239.504 146.829 237.476 146.829 237.151C146.829 236.827 146.855 237.098 146.855 236.584V235.909C146.855 235.909 148.504 225.799 146.747 219.421L146.125 207.041L137.952 210.052Z" fill="#FB9390"/>
<path d="M81.0772 139.32C81.0772 139.32 77.9148 139.283 75.7256 140.517C73.5445 141.748 72.9569 144.683 72.9161 146.979C72.8631 149.943 73.8363 152.926 75.6848 155.252C77.5353 157.582 80.7936 158.629 80.7936 158.629L89.9604 152.785C89.9604 152.785 91.0499 150.064 90.2808 146.414C89.5096 142.764 89.7136 138.75 81.0772 139.318V139.32Z" fill="#2B3569"/>
<path d="M96.5239 233.821C96.5239 233.821 99.5517 238.173 99.7679 238.767C99.9842 239.36 101.472 243.308 101.472 243.308L113.095 237.659L104.201 234.955L102.418 231.062L96.526 233.819L96.5239 233.821Z" fill="#FB9390"/>
<path d="M81.2793 203.015L90.7665 222.802L97.0097 235.29C97.0097 235.29 102.551 233.154 103.93 231.777L99.4437 216.046L94.3349 197.829L83.595 196.852L81.2793 203.017V203.015Z" fill="#5F6EBD"/>
<path d="M72.3329 235.829C72.3329 235.829 72.7654 238.748 72.7654 238.938C72.7654 239.128 72.1166 241.939 72.0085 242.696C71.9004 243.453 72.0085 244.047 72.0085 244.047L83.0239 241.411C83.0239 241.411 81.3876 240.344 79.9288 239.532C78.47 238.722 78.2537 234.855 78.2537 234.855L72.335 235.829H72.3329Z" fill="#FB9390"/>
<path d="M70.7921 197.825C70.7921 197.825 72.6793 209.693 72.4141 213.663C72.0326 219.366 70.5228 221.555 71.6021 236.508H79.2775C79.2775 236.508 79.8182 228.476 81.0077 222.259C82.1971 216.042 84.7923 205.608 84.7923 205.608L89.0626 195.982L70.79 197.823L70.7921 197.825Z" fill="#5F6EBD"/>
<path d="M75.2338 153.207C75.6051 154.366 76.5395 155.104 77.323 154.853C78.1065 154.602 78.4411 153.46 78.0718 152.301C77.7004 151.142 76.766 150.403 75.9825 150.654C75.1991 150.905 74.8645 152.048 75.2338 153.207Z" fill="#FB9390"/>
<path d="M88.2694 150.73C88.3714 151.944 89.1202 152.87 89.9403 152.801C90.7605 152.731 91.342 151.691 91.238 150.479C91.1339 149.265 90.3872 148.339 89.567 148.408C88.7468 148.477 88.1653 149.518 88.2694 150.73Z" fill="#FB9390"/>
<path d="M200.94 154.442C202.674 152.565 206.327 144.749 207.563 142.529C207.536 142.307 207.438 141.013 208.41 139.118C209.095 137.779 209.271 135.041 210.015 135.635C210.76 136.229 209.685 138.618 210.366 138.475C211.048 138.332 213.61 133.505 214.286 134.042C214.961 134.58 212.255 138.971 212.866 138.842C213.476 138.716 215.526 134.427 216.479 135.186C217.432 135.947 213.629 139.993 214.141 140.401C214.653 140.809 216.987 138.194 217.754 138.806C218.521 139.418 214.406 142.217 214.765 142.144C215.124 142.068 217.689 141.403 217.815 141.929C217.958 142.525 211.594 144.961 211.001 146.183C209.872 149.49 207.891 155.513 205.274 158.555C202.071 162.279 192.859 172.602 192.859 172.602L189.031 165.343C189.031 165.343 198.884 156.666 200.94 154.438V154.442Z" fill="#FB9390"/>
<path d="M210.624 139.766C210.862 140.082 211.011 140.449 211.111 140.831C211.111 140.896 211.521 142.112 210.713 143.291C210.948 142.428 211.203 141.469 210.624 139.764V139.766Z" fill="#EF7F7F"/>
<path d="M71.5165 164.192C71.5165 164.192 72.4081 187.204 71.5165 191.5C70.6249 195.797 70.2148 198.586 70.2148 198.586C70.2148 198.586 82.5441 200.988 94.3837 197.825C94.3837 197.825 92.6006 189.797 91.7885 181.446C90.9785 173.093 90.3298 162.039 90.3298 162.039C90.3298 162.039 85.8412 161.704 82.3829 162.021C74.5239 162.741 71.5165 164.192 71.5165 164.192Z" fill="#BFC5E5"/>
<path d="M78.8473 156.184L78.5005 162.48C78.5005 162.48 79.0901 165.954 82.5382 166.158C85.9842 166.36 84.9702 158.942 84.9702 158.942L84.7682 156.186H78.8494L78.8473 156.184Z" fill="#FB9390"/>
<path d="M84.8576 160.927C84.9412 160.927 85.0229 160.927 85.1045 160.921C85.0861 159.797 84.9678 158.94 84.9678 158.94L84.7658 156.184H78.847L78.7939 157.128C79.5366 158.393 81.7217 160.927 84.8576 160.927Z" fill="#EF7F7F"/>
<path d="M72.2183 240.375C72.2183 240.375 72.6243 239.969 74.0423 240.091C75.4623 240.214 82.5767 241.003 82.8807 241.003C83.1847 241.003 87.257 244.094 87.4386 244.655C87.6202 245.217 78.6431 244.849 78.6431 244.849H71.8082C71.8082 244.849 71.1635 242.807 72.2162 240.375H72.2183Z" fill="#92B5F9"/>
<path d="M100.417 240.228C100.417 240.228 100.001 240.508 100.001 240.887C100.001 241.138 100.423 242.846 100.915 244.062C101.201 244.772 102.043 245.07 102.712 244.701L115.042 237.902C115.042 237.902 115.939 237.123 110.125 236.756L100.417 240.226V240.228Z" fill="#92B5F9"/>
<path d="M71.5165 164.191C71.5165 164.191 69.766 164.957 68.7377 167.335C67.7115 169.714 64.4124 180.471 66.6301 186.906C66.6301 186.906 67.6278 191.796 72.7652 195.148C77.9005 198.5 86.8552 199.306 87.3632 198.798C87.8692 198.292 87.8896 197.413 87.8896 196.848C87.8896 196.283 89.0648 195.999 89.0648 195.23C89.0648 194.461 87.0776 194.324 84.7946 194.324C84.7946 194.324 84.3885 194.283 84.8884 193.906C85.3883 193.526 86.0228 193.055 85.9146 192.339C85.8065 191.623 85.3413 191.655 84.9006 192.096C84.462 192.535 83.0093 193.718 81.8464 193.379C80.6834 193.041 73.818 187.405 72.6836 185.622C72.6836 185.622 73.1365 164.575 71.5145 164.191H71.5165Z" fill="#FB9390"/>
<path d="M128.635 164.943C128.635 164.943 132.334 162.89 136.264 162.429C140.191 161.968 145.827 163.443 145.827 163.443L149.077 210.359C149.077 210.359 134.481 217.292 123.535 210.359C123.535 210.359 126.475 190.66 126.475 187.89V185.121L128.637 164.943H128.635Z" fill="#92B5F9"/>
<path d="M113.748 240.841C113.358 240.797 112.991 241.027 112.86 241.396C112.709 241.821 112.777 242.202 113.095 242.521C113.676 243.102 123.818 244.763 127.36 244.685C127.736 244.677 128.272 243.561 127.719 243.237C126.852 242.731 116.427 241.147 113.752 240.843L113.748 240.841Z" fill="#2B3569"/>
<path d="M116.743 239.769L117.582 241.476L119.447 241.99C119.447 241.99 118.581 238.936 117.825 239.071C117.068 239.205 116.743 239.769 116.743 239.769Z" fill="#2B3569"/>
<path d="M133.582 243.207C133.227 243.207 132.906 243.431 132.796 243.77C132.706 244.044 132.678 244.354 132.88 244.558C133.312 244.99 147.837 244.692 147.837 244.692C147.837 244.692 148.188 243.613 147.555 243.395C147.137 243.252 136.107 243.213 133.58 243.207H133.582Z" fill="#2B3569"/>
<path d="M137.958 240.883C137.827 240.647 136.825 240.897 136.511 241.495L137.799 243.346L139.313 243.34L137.958 240.883Z" fill="#2B3569"/>
<path d="M170.289 231.503C170.289 231.503 169.704 236.585 168.753 238.801C167.802 241.017 164.666 242.416 161.91 242.961C159.154 243.506 160.072 243.938 160.476 244.342C160.88 244.746 172.829 245.02 174.939 244.638C174.939 244.638 174.129 240.478 174.129 239.829C174.129 239.181 177.426 228.963 177.426 228.963L170.291 231.503H170.289Z" fill="#FB9390"/>
<path d="M174.939 244.639C174.939 244.639 174.774 243.792 174.592 242.802C172.287 243.112 167.013 242.572 164.371 242.264C163.561 242.57 162.579 242.662 161.769 242.821C159.013 243.365 159.219 244.088 159.911 244.59C160.372 244.926 172.832 245.02 174.939 244.639Z" fill="#07DA9E"/>
<path d="M193.803 230.312C193.803 230.312 193.481 236.557 194.148 238.801C194.838 241.113 195.825 241.509 198.533 242.262C201.191 243 200.181 244.184 199.777 244.588C199.373 244.992 190.072 245.018 187.962 244.637C187.962 244.637 188.772 240.477 188.772 239.828C188.772 239.179 187.787 228.678 187.787 228.678L193.799 230.312H193.803Z" fill="#FB9390"/>
<path d="M187.964 244.639C187.964 244.639 188.13 243.792 188.311 242.802C190.617 243.112 195.891 242.572 198.533 242.264C199.447 242.486 200.188 242.668 200.991 242.961C203.632 243.924 203.395 244.186 202.991 244.59C202.587 244.994 190.072 245.02 187.962 244.639H187.964Z" fill="#07DA9E"/>
<path d="M145.827 163.445C145.827 163.445 142.665 167.175 144.287 173.42C145.909 179.663 149.828 189.612 154.665 195.147C155.449 196.042 157.261 197.936 158.071 198.477C158.881 199.017 162.314 199.395 162.314 199.395C162.314 199.395 163.828 194.745 163.396 194.312C162.963 193.88 159.327 193.839 158.342 192.854C157.354 191.868 147.773 163.445 145.827 163.445Z" fill="#FB9390"/>
<path d="M176.416 163.361C176.416 163.361 175.506 163.929 174.858 165.606C174.209 167.281 170.844 181.067 170.357 183.066C169.981 184.611 166.568 189.146 164.875 191.331C164.375 191.976 163.991 192.513 163.748 192.513C162.261 192.513 159.794 193.337 159.794 193.953C159.794 194.569 160.378 194.634 161.351 194.418C162.324 194.202 161.588 195.257 161.237 195.608C160.886 195.959 159.388 197.962 159.919 198.493C160.449 199.023 161.722 199.39 162.318 199.39C162.641 199.39 163.298 199.356 164.495 198.378C165.503 197.556 166.986 195.873 168.072 194.904C171.981 191.417 175.198 184.092 175.792 182.415C176.388 180.74 176.418 163.359 176.418 163.359L176.416 163.361Z" fill="#FB9390"/>
<path d="M163.889 196.001C163.889 196.001 164.295 196.041 164.295 196.831C164.295 197.621 163.605 198.839 163.14 199.304C162.675 199.769 158.405 198.637 158.405 198.637C158.405 198.637 159.957 198.675 160.488 198.018C160.725 197.723 161.173 196.345 161.62 196.345C162.067 196.345 161.579 198.21 161.579 198.21C161.579 198.21 162.432 195.758 162.877 195.758C163.322 195.758 163.363 196.205 163.161 196.953C162.959 197.704 163.616 195.784 163.891 196.001H163.889Z" fill="#FB9390"/>
<path d="M167.319 232.008C167.319 232.008 173.644 233.712 180.819 233.712C187.995 233.712 202.103 230.064 202.103 230.064C202.103 230.064 198.21 220.658 196.874 213.442C195.536 206.225 194.562 193.818 194.562 193.818H173.152L171.814 202.406L167.319 232.008Z" fill="#2B3569"/>
<path d="M176.416 163.362C176.416 163.362 175.019 164.984 175.019 170.011C175.019 175.038 174.776 182.579 174.37 185.174C173.964 187.77 172.748 194.215 172.748 194.215C172.748 194.215 176.316 197.175 185.561 196.363C194.805 195.553 195.291 194.309 195.291 194.309C195.291 194.309 193.993 173.414 193.993 171.225C193.993 169.036 192.008 162.701 192.008 162.701C192.008 162.701 186.667 162.15 184.235 162.338C181.803 162.526 176.414 163.36 176.414 163.36L176.416 163.362Z" fill="#07DA9E"/>
<path d="M172.213 143.629C172.213 143.629 168.323 144.732 168.645 148.725C168.943 152.408 170.753 152.22 170.753 152.22C170.753 152.22 169.428 157.441 173.429 158.953C177.202 160.379 178.62 158.953 178.62 158.953C178.62 158.953 180.256 163.289 185.85 161.613C191.445 159.94 190.945 156.548 190.945 156.548C190.945 156.548 193.328 157.486 196.086 153.106C198.843 148.727 197.27 145.573 193.622 143.627C193.622 143.627 194.836 138.053 189.258 137.159C183.68 136.267 182.311 139.328 182.311 139.328C182.311 139.328 181.317 135.91 175.378 138.263C171.485 139.803 172.215 143.627 172.215 143.627L172.213 143.629Z" fill="#2B3569"/>
<path d="M187.627 151.985C187.217 153.132 187.511 154.284 188.286 154.562C189.062 154.839 190.023 154.136 190.433 152.989C190.843 151.842 190.549 150.689 189.774 150.412C188.999 150.135 188.038 150.838 187.627 151.985Z" fill="#FB9390"/>
<path d="M174.943 153.123C175.131 154.327 175.943 155.198 176.755 155.071C177.569 154.945 178.075 153.865 177.887 152.664C177.7 151.462 176.888 150.589 176.076 150.715C175.264 150.842 174.756 151.921 174.943 153.123Z" fill="#FB9390"/>
<path d="M181.613 158.388L181.829 163.117C181.829 163.117 181.937 164.956 183.857 165.199C185.777 165.441 187.534 163.958 187.534 162.469C187.534 162.279 186.587 155.793 186.587 155.793L181.613 158.388Z" fill="#FB9390"/>
<path d="M186.587 155.793L181.613 158.388L181.69 160.071C182.59 160.078 183.924 160.006 184.991 159.37C185.889 158.833 186.391 158.154 186.793 157.215C186.673 156.385 186.587 155.795 186.587 155.795V155.793Z" fill="#EF7F7F"/>
<path d="M105.919 195.347C105.919 195.347 107.131 196.13 107.85 195.959C108.57 195.786 108.215 195.418 107.876 195.082C107.537 194.743 106.634 194.311 106.634 194.311L105.919 195.349V195.347Z" fill="#F48C7F"/>
<path d="M81.9732 142.624C80.0105 142.913 78.5741 144.305 77.5295 146.002C75.4607 149.367 77.1439 154.322 77.7111 155.457C78.2783 156.591 80.5491 159.511 83.9135 159.511C87.2779 159.511 89.6303 156.43 89.9139 153.429C90.2934 149.411 89.2182 144.405 85.3947 143.009C84.3521 142.628 83.1178 142.454 81.9712 142.624H81.9732Z" fill="#FB9390"/>
<path d="M136.135 142.724C136.135 142.724 134.473 142.643 132.608 143.534C130.743 144.426 128.797 148.437 128.797 152.006C128.797 154.176 127.836 155.074 127.083 155.441C126.679 155.639 126.571 156.164 126.866 156.502C127.601 157.339 128.368 158.257 129.333 158.818C132.991 160.946 136.676 161.011 140.787 160.256C144.094 159.65 147.216 158.161 149.562 155.719C150.005 155.26 149.885 154.501 149.322 154.199C148.544 153.781 147.63 152.883 147.281 150.953C146.632 147.344 145.294 140.978 136.131 142.722L136.135 142.724Z" fill="#2B3569"/>
<path d="M141.093 152.569C140.83 153.759 141.267 154.866 142.07 155.044C142.874 155.223 143.739 154.403 144.003 153.216C144.266 152.028 143.829 150.918 143.027 150.741C142.224 150.563 141.358 151.382 141.095 152.569H141.093Z" fill="#FB9390"/>
<path d="M129.209 150.983C129.209 152.201 129.876 153.186 130.698 153.186C131.521 153.186 132.188 152.199 132.188 150.983C132.188 149.767 131.521 148.779 130.698 148.779C129.876 148.779 129.209 149.767 129.209 150.983Z" fill="#FB9390"/>
<path d="M134.259 158.819L133.853 164.387C133.853 164.387 134.042 165.658 135.556 165.927C137.07 166.197 140.288 163.954 140.288 162.765L139.531 156.332L134.261 158.819H134.259Z" fill="#FB9390"/>
<path d="M134.061 161.535C136.452 161.653 138.376 160.576 139.798 158.613L139.53 156.332L134.261 158.819L134.063 161.535H134.061Z" fill="#EF7F7F"/>
<path d="M130.541 153.834C130.906 155.901 131.514 159.541 134.758 159.916C138.002 160.292 140.434 158.537 141.975 155.375C143.515 152.212 143.15 148.036 142.299 145.969C141.622 144.327 138.702 144.404 137.268 144.429C132.461 144.51 129.733 149.256 130.541 153.834Z" fill="#FB9390"/>
<path d="M135.285 143.766C135.285 143.766 135.234 146.424 137.447 148.638C139.661 150.851 144.109 152.006 144.109 152.006L144.637 153.255C144.637 153.255 145.339 149.28 143.664 146.63C141.989 143.982 135.285 143.766 135.285 143.766Z" fill="#2B3569"/>
<path d="M184.169 143.055C184.169 143.055 186.524 143.727 187.934 146.104C189.343 148.481 190.194 155.305 185.31 158.219C180.425 161.132 177.161 156.454 176.82 152.102C176.416 146.954 178.663 142.18 184.169 143.055Z" fill="#FB9390"/>
<path d="M388.478 156.922C389.91 160.705 394.139 162.61 397.922 161.178C401.705 159.744 403.61 155.514 402.176 151.732C400.744 147.949 396.514 146.043 392.732 147.478C388.949 148.912 387.043 153.139 388.478 156.924V156.922Z" fill="#5F6EBD"/>
<path d="M399.401 154.025C400.168 156.049 399.148 158.31 397.126 159.075C395.104 159.842 392.844 158.822 392.077 156.8L399.401 154.025Z" fill="#EFEFEF"/>
</svg>
